<svg xmlns="http://www.w3.org/2000/svg" viewBox="0 0 16 16">
  <rect width="16" height="16" rx="3" fill="#0d6efd"/>
  <path fill="white" d="M.102 2.223A3.004 3.004 0 0 0 3.78 5.897l6.341 6.252A3.003 3.003 0 0 0 13 16a3 3 0 1 0-.851-5.878L5.897 3.781A3.004 3.004 0 0 0 2.223.1l2.141 2.142L4 4l-1.757.364L.102 2.223zm13.37 9.019.528.026.287.445.445.287.026.528L15 13l.857.857-.18.52-.52.18L15 14l-.857.857-.52-.18-.18-.52L14 14l-.857-.857.18-.52.52-.18L14 13l-.857-.857.263-.756.756-.263.263-.413z"/>
</svg>
